<svg width="100" height="100" viewBox="0 0 160 160" fill="none" xmlns="http://www.w3.org/2000/svg">
<g clip-path="url(#clip0)">
<path d="M101.244 154.373V142.061H102.673V154.373H101.244Z" fill="white"/>
<path d="M110.987 149.114C110.987 148.242 110.944 147.627 110.851 147.262C110.762 146.898 110.59 146.658 110.333 146.536C110.076 146.415 109.651 146.358 109.055 146.358C108.398 146.358 107.919 146.479 107.615 146.726C107.312 146.969 107.119 147.312 107.044 147.756C106.965 148.195 106.926 148.825 106.926 149.636V154.377H105.569V145.249H106.783L106.855 146.54H106.944C107.123 146.075 107.419 145.721 107.83 145.475C108.24 145.228 108.833 145.106 109.608 145.106C110.383 145.106 110.962 145.224 111.351 145.464C111.737 145.703 112.001 146.068 112.137 146.554C112.272 147.044 112.344 147.731 112.344 148.614V154.377H110.987V149.114Z" fill="white"/>
<path d="M116.19 154.445C115.64 154.398 115.172 154.344 114.78 154.284V153.158C115.719 153.276 116.655 153.336 117.587 153.336C118.112 153.336 118.497 153.29 118.747 153.193C118.997 153.097 119.165 152.95 119.247 152.746C119.329 152.543 119.372 152.253 119.372 151.871C119.372 151.452 119.344 151.155 119.29 150.977C119.237 150.798 119.14 150.68 119.004 150.619C118.869 150.558 118.644 150.512 118.333 150.476L116.258 150.208C115.58 150.126 115.119 149.908 114.883 149.554C114.644 149.203 114.526 148.61 114.526 147.773C114.526 147.033 114.651 146.469 114.901 146.082C115.151 145.696 115.501 145.435 115.955 145.303C116.408 145.171 117.005 145.106 117.744 145.106C118.147 145.106 118.59 145.131 119.065 145.178C119.54 145.224 119.94 145.285 120.262 145.357V146.483C119.558 146.351 118.712 146.286 117.722 146.286C117.258 146.286 116.901 146.315 116.651 146.376C116.401 146.436 116.208 146.565 116.069 146.769C115.933 146.973 115.862 147.284 115.862 147.698C115.862 148.081 115.89 148.36 115.944 148.531C115.997 148.703 116.09 148.825 116.222 148.889C116.355 148.953 116.569 149.003 116.865 149.039L118.922 149.289C119.387 149.336 119.74 149.432 119.987 149.575C120.229 149.718 120.412 149.965 120.533 150.308C120.651 150.655 120.712 151.163 120.712 151.828C120.712 152.543 120.601 153.097 120.379 153.483C120.158 153.869 119.829 154.141 119.397 154.287C118.962 154.437 118.387 154.509 117.672 154.509C117.233 154.516 116.737 154.495 116.19 154.445Z" fill="white"/>
<path d="M123.465 154.373V146.429H121.876V145.249H123.465V142.6H124.822V145.249H126.697V146.429H124.822V154.373H123.465V154.373Z" fill="white"/>
<path d="M128.433 142.636V141.077H129.879V142.636H128.433ZM128.469 154.373V145.246H129.826V154.373H128.469V154.373Z" fill="white"/>
<path d="M133.186 154.373V146.429H131.597V145.249H133.186V142.6H134.543V145.249H136.418V146.429H134.543V154.373H133.186V154.373Z" fill="white"/>
<path d="M143.682 153.086H143.575C143.397 153.551 143.104 153.905 142.7 154.151C142.297 154.394 141.704 154.519 140.929 154.519C140.154 154.519 139.572 154.401 139.175 154.162C138.783 153.922 138.518 153.558 138.379 153.072C138.243 152.582 138.172 151.895 138.172 151.012V145.249H139.529V150.512C139.529 151.37 139.575 151.985 139.672 152.353C139.768 152.725 139.943 152.968 140.2 153.086C140.458 153.204 140.883 153.265 141.479 153.265C142.132 153.265 142.611 153.143 142.907 152.896C143.204 152.65 143.393 152.314 143.472 151.877C143.55 151.441 143.59 150.812 143.59 149.99V145.246H144.947V154.373H143.732L143.682 153.086Z" fill="white"/>
<path d="M148.311 154.373V146.429H146.722V145.249H148.311V142.6H149.668V145.249H151.543V146.429H149.668V154.373H148.311V154.373Z" fill="white"/>
<path d="M154.032 154.134C153.543 153.876 153.229 153.444 153.093 152.829C152.957 152.214 152.886 151.209 152.886 149.811C152.886 148.413 152.954 147.412 153.093 146.797C153.229 146.183 153.543 145.746 154.032 145.493C154.522 145.235 155.325 145.106 156.447 145.106C157.568 145.106 158.371 145.235 158.861 145.493C159.35 145.75 159.661 146.186 159.8 146.797C159.936 147.412 160.007 148.417 160.007 149.811C160.007 151.206 159.939 152.214 159.8 152.829C159.664 153.444 159.35 153.88 158.861 154.134C158.371 154.387 157.568 154.52 156.447 154.52C155.325 154.516 154.518 154.387 154.032 154.134ZM157.989 153.093C158.282 152.932 158.464 152.632 158.536 152.199C158.607 151.763 158.643 150.966 158.643 149.811C158.643 148.653 158.607 147.859 158.536 147.423C158.464 146.987 158.282 146.69 157.989 146.529C157.696 146.368 157.182 146.286 156.443 146.286C155.704 146.286 155.193 146.365 154.907 146.529C154.622 146.69 154.443 146.991 154.372 147.423C154.3 147.859 154.264 148.657 154.264 149.811C154.264 150.98 154.3 151.781 154.372 152.21C154.443 152.639 154.622 152.936 154.907 153.097C155.193 153.258 155.707 153.34 156.443 153.34C157.182 153.336 157.7 153.254 157.989 153.093Z" fill="white"/>
<path d="M50.0525 106.57L52.5453 112.884L43.7669 133.877H37.8349L8.30339 63.8263L0 52.4253V51.7139H41.2776V52.4253L32.9743 63.8227L50.0525 106.57Z" fill="white"/>
<path d="M107.101 56.5832H110.898C119.201 56.5832 125.604 62.7574 125.604 76.0567C125.604 86.5067 121.515 91.6692 114.658 93.0134V98.0221C114.669 98.0221 114.68 98.0221 114.694 98.0186L127.622 124.26L130.111 133.047H159.171V132.336L148.022 120.463L133.315 92.6774C142.447 89.1166 148.615 82.9424 148.615 73.2038C148.615 58.478 135.804 51.7139 112.676 51.7139H107.101" fill="white"/>
<path d="M94.0586 51.7139H63.8129V52.4253L72.1163 63.8263V70.8121L94.0586 63.8263V56.5832" fill="white"/>
<path d="M72.1163 63.8262H94.0586V131.385C94.0586 144.087 84.0946 153.586 66.6592 160L66.0664 159.288C70.2163 152.757 72.1163 146.229 72.1163 135.421V63.8262Z" fill="white"/>
<path d="M83.0481 0L98.3478 15.3157L83.0481 30.6315L67.7485 15.3157L83.0481 0Z" fill="white"/>
</g>
<defs>
<clipPath id="clip0">
<rect width="160" height="160" fill="white"/>
</clipPath>
</defs>
</svg>
